<svg id="Layer_1" data-name="Layer 1" xmlns="http://www.w3.org/2000/svg" viewBox="0 0 110.63 110.63"><defs><style>.cls-1,.cls-2{fill:none;stroke:#1a1a18;stroke-miterlimit:10;}.cls-1{stroke-width:2px;}.cls-2{stroke-width:5px;}</style></defs><path class="cls-1" d="M63.8,32.36A10,10,0,1,1,78,46.52"/><path class="cls-1" d="M76.44,53.88l2-2c.58-.58.11-2-1-3.15L61.71,33.09c-1.16-1.16-2.57-1.63-3.15-1.05l-2,2Z"/><path class="cls-1" d="M71.52,51.77l-4,2a3.65,3.65,0,0,1-4-1.07L57.7,46.92A3.68,3.68,0,0,1,56.61,43l1.94-4.19"/><path class="cls-1" d="M63.46,58l-24.23,22c-1.32,1.19-2.8,1.61-3.43,1L30,75.14c-.62-.62-.24-2,.89-3.33L52.5,47"/><circle class="cls-2" cx="55.31" cy="55.31" r="52.81"/></svg>