<svg id="Layer_1" data-name="Layer 1" xmlns="http://www.w3.org/2000/svg" viewBox="0 0 597.27 109.58"><defs><style>.cls-1{fill:#f7b3b7;}.cls-2{fill:#c9b5d8;}.cls-3{fill:#fce163;}.cls-4{fill:#abdff0;}.cls-5,.cls-7,.cls-8{fill:none;stroke-miterlimit:10;}.cls-5{stroke:#f7b3b7;stroke-width:3px;}.cls-6{fill:#97d1a9;}.cls-7{stroke:#c9b5d8;stroke-width:5px;}.cls-8{stroke:#97d1a9;stroke-width:6px;}</style></defs><rect class="cls-1" x="170.53" y="30.16" width="13.83" height="75.92"/><rect class="cls-2" x="170.53" y="6.42" width="13.83" height="18.78"/><circle class="cls-2" cx="194.86" cy="15.81" r="5.9"/><circle class="cls-3" cx="211.27" cy="15.81" r="5.9"/><path class="cls-3" d="M230.43,23.77a8,8,0,0,1,0-15.92"/><path class="cls-2" d="M205.36,46.16h12.23a8.21,8.21,0,0,1,8.21,8.21v3a8.21,8.21,0,0,1-8.21,8.21H205.36a0,0,0,0,1,0,0V46.16A0,0,0,0,1,205.36,46.16Z"/><rect class="cls-3" x="188.96" y="46.16" width="8.74" height="19.4"/><rect class="cls-2" x="188.96" y="86.68" width="8.74" height="19.4"/><polyline class="cls-1" points="231.7 86.68 231.7 106.08 204.12 106.08"/><path class="cls-1" d="M23.36,104.57H54.63A16.68,16.68,0,0,0,71.31,87.88V61.56A16.68,16.68,0,0,0,54.63,44.87H42.57v41.2H23.36Z"/><path class="cls-1" d="M51.88,3.85H20.62A16.69,16.69,0,0,0,3.93,20.54V46.86A16.69,16.69,0,0,0,20.62,63.55H32.67V22.35H51.88Z"/><ellipse class="cls-4" cx="16.75" cy="88.8" rx="16.75" ry="17.28"/><ellipse class="cls-5" cx="16.75" cy="88.8" rx="4.02" ry="4.15"/><ellipse class="cls-3" cx="16.75" cy="88.8" rx="2.73" ry="2.82"/><rect class="cls-4" x="41.34" y="0.22" width="34.51" height="34.51" rx="12"/><rect class="cls-3" x="63.52" y="4.83" width="6.9" height="6.9"/><rect class="cls-3" x="63.52" y="14.03" width="6.9" height="3.45"/><circle class="cls-3" cx="48.02" cy="9" r="3.43"/><circle class="cls-1" cx="48.02" cy="9" r="1.52"/><path class="cls-5" d="M48,12.43l1.12,8.63a6.8,6.8,0,0,0,3.3,5c.64.37,1.38.78,2.25,1.24a16.27,16.27,0,0,0,7.91,1.58"/><path class="cls-6" d="M142.13,5.29H109.87v18.1h9.81a6.4,6.4,0,0,1,6.41,6.4v16a6.41,6.41,0,0,1-6.41,6.41h-9.81V70.28h32.26a14.64,14.64,0,0,0,14.64-14.65V19.94A14.64,14.64,0,0,0,142.13,5.29Z"/><circle class="cls-3" cx="146.23" cy="53.82" r="13.81"/><rect class="cls-2" x="88.77" y="4.7" width="27.24" height="101.39"/><circle class="cls-3" cx="144.03" cy="15.9" r="15.83"/><circle class="cls-2" cx="144.03" cy="15.9" r="6.61"/><circle class="cls-2" cx="146.23" cy="53.82" r="5.76"/><path class="cls-3" d="M88.77,52.77a8.19,8.19,0,0,0,0-16.38"/><path class="cls-3" d="M88.77,38a8.19,8.19,0,1,0,0-16.37"/><path class="cls-3" d="M88.77,23.61a8.19,8.19,0,1,0,0-16.37"/><path class="cls-3" d="M116.13,30a8.19,8.19,0,0,0,0,16.37"/><path class="cls-3" d="M116.13,44.75a8.19,8.19,0,0,0,0,16.38"/><path class="cls-3" d="M116.13,59.16a8.19,8.19,0,0,0,0,16.37"/><path class="cls-3" d="M88.77,100.92a8.19,8.19,0,1,0,0-16.37"/><path class="cls-3" d="M88.77,86.16a8.19,8.19,0,1,0,0-16.37"/><path class="cls-6" d="M286.4,32.8c-3.81-3-3-7-7.08-9.13-2.93-1.48-7.17-1.39-9.25.74-1.2,1.21-1.08,2.47-1.34,9.68-.23,6.32-.36,9.51-.94,10.85-1.9,4.43-4.77,4.13-6.1,8.64a13.29,13.29,0,0,0,.07,7.41c1.22,3.9,3.35,3.66,4.07,6.7.8,3.41-1.75,4.32-2.43,11.08-.43,4.21.35,5.9.89,6.77a7.58,7.58,0,0,0,3.89,3.16c3.46,1.12,7.74-.82,9.89-3.73,3.29-4.47-.07-9,3.54-13,1.82-2,2.8-1,5.56-3.16,5.43-4.28,4.44-10.42,7.68-11.33,3-.83,6.65,3.65,7.37,4.52,5.15,6.32,4.7,14.51,4.13,22.92-.74,10.72-1.11,16.08-4.55,19.13-4.2,3.72-7.58.87-24.69,3.73-7.07,1.19-8.5,2-12.84,1.72-3.19-.21-10.1-.77-16.06-6-1.26-1.11-8.54-7.46-7.54-14.76.75-5.42,5.28-5.63,6.25-11.09,1.11-6.33-4.62-8-5.64-16.36-.85-6.91,2.82-7.66,4.14-19.39.78-7-.47-7.17.24-15.14.9-10,1.35-15,4.79-18.62,4.62-4.84,12-4.47,26.76-3.72,8.88.45,13.39.73,17,3.26,8.69,6.1,12.21,20.78,7,25.64C297.84,36.43,290.52,36.06,286.4,32.8Z"/><path class="cls-4" d="M279.8,30.4c-.5,3.83-.28,6.25,1,8.36,2.83,4.71,9.46,5.49,12.54,5.85,4.72.56,4.47-.73,13.48-1,5.67-.14,7.1.34,8.9-1,2.91-2.17,4.21-7.18,2.69-10.7-1.61-3.73-5.4-3.51-6.11-6.88-.56-2.64,1.6-3.62,2-7.23.69-5.69-3.83-10.37-4-10.57-4.61-4.64-12.08-4.74-17-2.88C282.62,8.41,280.8,22.56,279.8,30.4Z"/><circle class="cls-2" cx="304.7" cy="17.62" r="6.12"/><circle class="cls-3" cx="304.7" cy="17.62" r="3.24"/><circle class="cls-2" cx="290.36" cy="21.85" r="6.12"/><circle class="cls-3" cx="290.36" cy="21.85" r="3.24"/><path class="cls-1" d="M289.88,33.93c.36-1.74,4.51-3.06,7.49-2,1.6.56,1.93,1.47,3.48,1.54s2-1,4.38-1.48c.52-.11,3.79-.83,4.74.6.65,1,0,2.67-.78,3.71-1.29,1.62-3.36,1.89-7.44,2.36-3.16.36-4.75.54-6.41,0C292.63,37.86,289.53,35.59,289.88,33.93Z"/><rect class="cls-2" x="428.79" width="28.59" height="28.59"/><path class="cls-2" d="M453.87,0h27.86a20.42,20.42,0,0,1,20.42,20.42v3.72a0,0,0,0,1,0,0H453.87a0,0,0,0,1,0,0V0A0,0,0,0,1,453.87,0Z"/><rect class="cls-6" x="428.79" y="32.8" width="14.3" height="73.28"/><rect class="cls-2" x="445.9" y="88.87" width="11.81" height="17.21"/><circle class="cls-3" cx="451.8" cy="76.48" r="5.27"/><circle class="cls-3" cx="451.8" cy="56.46" r="5.27"/><circle class="cls-3" cx="451.8" cy="38.48" r="5.27"/><path class="cls-7" d="M500.14,28.3V48a15.39,15.39,0,0,1-15.39,15.39H459.84"/><path class="cls-6" d="M477.07,28.3h16.21a0,0,0,0,1,0,0V44.37a13.71,13.71,0,0,1-13.71,13.71h-2.5a0,0,0,0,1,0,0V28.3A0,0,0,0,1,477.07,28.3Z"/><polygon class="cls-3" points="470.77 93.7 501.09 93.7 493.16 76.48 462.84 76.48 470.77 93.7"/><line class="cls-8" x1="476.38" y1="104.87" x2="507.44" y2="104.87"/><path class="cls-1" d="M537.56,25c1-5.44,2.47-11,5.93-15.85a17.09,17.09,0,0,1,3.14-3.35,11.31,11.31,0,0,1,1.06-.75,9.65,9.65,0,0,1,1.21-.59,11.85,11.85,0,0,1,2.41-.69,43.14,43.14,0,0,1,8.78-.33c2.81.13,5.52.3,8.31.49a79.09,79.09,0,0,1,8.59,1,23.55,23.55,0,0,1,2.42.63,10.77,10.77,0,0,1,1.43.6,9.77,9.77,0,0,1,1.47.93l1.9,1.63c.57.58,1.12,1.17,1.68,1.77A37.39,37.39,0,0,1,591,18.25a70.37,70.37,0,0,1,3.45,8.26,56.59,56.59,0,0,1,2.35,8.75,44.94,44.94,0,0,1,.49,4.68,43.6,43.6,0,0,1-.1,4.6c-.23,2.93-.63,5.55-1,8.18-.73,5.22-1.34,10.52-1.93,15.9s-1.13,10.83-2,16.46l-1.09.15a70.12,70.12,0,0,1-4.72-16.35,90.34,90.34,0,0,1-1.27-17c.06-2.86.3-5.69.52-8.23a54.1,54.1,0,0,0,.22-7.16,44.3,44.3,0,0,0-.92-7.37,43.65,43.65,0,0,0-2.08-7.24,28.87,28.87,0,0,0-3.33-6.34l-1-1.33L577.45,13c-.17-.15-.12-.14-.23-.22a2.81,2.81,0,0,0-.45-.24,11.85,11.85,0,0,0-1.52-.55,143.78,143.78,0,0,0-15.69-3.1,39.59,39.59,0,0,0-7.66-.7,7.7,7.7,0,0,0-1.59.23,4.52,4.52,0,0,0-.68.23A5,5,0,0,0,549,9a14.39,14.39,0,0,0-2.8,2.31,28,28,0,0,0-4.41,6.44,54.94,54.94,0,0,0-3.12,7.49Z"/><path class="cls-4" d="M540.42,9.83a.9.9,0,0,0-.74-.16c-5.29.45-5.67-.49-8.11.35-3,1-7.72,4.2-6.14,7.79a7.78,7.78,0,0,0,5.86,4.06c1.31.07,2-.55,5-4.76C540.35,11.54,540.87,10.27,540.42,9.83Z"/><path class="cls-4" d="M544.79,14.83c1.33-.38,3.57,2.82,4.57,5.44a14.18,14.18,0,0,1,.52,7.73c-.07.41,0,.08-1.75,5.09-1,2.94-1.25,3.7-2.11,4.4-1.1.88-3,1.52-4.39.7s-1.53-2.9-1.58-4.22a6.72,6.72,0,0,1,.7-3.51c.78-1.49,1.57-1.47,2.28-2.63,1-1.59.27-2.88.18-5.8C543.14,20,543.31,15.25,544.79,14.83Z"/><path class="cls-3" d="M535.3,25.12c-1.36-1-4.49,1-6.27,2.75-.7.69-4.33,4.27-3.25,8.16,0,.14,1,3.27,3.36,3.67,2,.34,3.63-1.44,4.06-1.9.92-1,1.3-2.3,2.06-4.92a15,15,0,0,0,.78-4.51C536,26.78,536,25.62,535.3,25.12Z"/><path class="cls-3" d="M539,39.47c1.37-.57,3.47,1.64,4.75,3a19.65,19.65,0,0,1,4.56,7.9,15.7,15.7,0,0,1,.53,8.26,13.23,13.23,0,0,1-3.69,6.67c-.87.83-3.7,3.52-5.62,2.64s-2-4.36-1.4-6.68c.42-1.74,1-1.64,1.58-3.51a13.94,13.94,0,0,0-.18-7.73c-.75-2.94-1.57-3.2-1.76-5.62C537.73,44,537.44,40.12,539,39.47Z"/><path class="cls-4" d="M530.74,44.39a19.73,19.73,0,0,0-3.69,6.15c-.9,2.47-2,5.44-.88,8.6.32.91,1.08,3.11,2.81,3.52,1.9.45,4.09-1.44,4.92-3.34.33-.75.23-1,.18-5.62,0-2.7-.05-4,0-4.92.07-1.4.1-2.81.17-4.21.1-1.91.14-2.46-.17-2.64C533.29,41.49,531.21,43.85,530.74,44.39Z"/><path class="cls-4" d="M529.6,66.88a11.8,11.8,0,0,0-4,4.16,15.73,15.73,0,0,0-2.53,7c-.14,1.53-.26,3.15.8,4.15a3.45,3.45,0,0,0,2.39.79,5.17,5.17,0,0,0,4.55-2.87c.78-1.77-.53-2.39-.24-6,.11-1.34.45-3.18.63-4.17.39-2.1.69-3.17.2-3.51C531.27,66.26,530.88,66.11,529.6,66.88Z"/><path class="cls-4" d="M536.53,69.51c1.26-.17,1.7,1.74,3.69,3,2.61,1.63,4.19-.2,6.68,1.23,2.17,1.25,2.92,3.77,3.69,6.33.62,2.08,1,3.4.35,4.74-1,1.9-3.48,2.69-5.45,2.46a6.62,6.62,0,0,1-3.86-2.11c-2-2-1.19-3.35-3.34-6.15-1.29-1.69-1.93-1.65-2.81-3.34a5.29,5.29,0,0,1-.7-4.21C534.88,71.15,535.46,69.65,536.53,69.51Z"/><path class="cls-3" d="M530.74,85.14c-2.23.66-3.07,2.88-3.51,4a10.16,10.16,0,0,0,.35,7.38,13.31,13.31,0,0,0,3.69,5.09,9.78,9.78,0,0,0,4.39,2.83c1.91.48,4.9.43,5.62-1.07.63-1.34-.8-3.28-1.23-3.87-1.64-2.23-3.25-2-3.87-3.69-.38-1.06.17-1.31.35-4,.17-2.48.25-3.78-.52-4.91A5,5,0,0,0,530.74,85.14Z"/><path class="cls-4" d="M540.14,93c-.07,1.53,1.27,2.52,4.75,5.45,4.26,3.59,4.27,3.81,5.62,4.56,1.94,1.1,5,2.83,6.67,1.59a3.19,3.19,0,0,0,.88-3.34c-.63-1.9-2.84-1.52-6.32-3.69-2.6-1.62-2.89-2.78-7-5.44-1.25-.81-2.55-1.56-3.51-1.06A2.35,2.35,0,0,0,540.14,93Z"/><path class="cls-3" d="M548.48,89.71c-.14-.7,3-1.87,5.44-2.81s3.91-1.49,4.75-1.5c4.56-.08,7.52,4.35,7.72,4.66.66,1,2.25,3.46,1.23,5.09-.81,1.3-3,1.54-4.39,1.23s-1.46-1-3.16-1.58c-2.14-.69-2.63.29-4.21-.35-2.07-.84-1.74-2.72-4-3.87C550,89.7,548.57,90.18,548.48,89.71Z"/><path class="cls-3" d="M584.46,58.4c1.29-.27,1.54-6.66,1.75-11.95.25-6.46.38-9.69-.24-12.24-.36-1.53-2.41-5.15-6.52-12.4a23.12,23.12,0,0,0-5.21-6.89c-1.88-1.61-4.2-3.55-6.73-2.78A6.55,6.55,0,0,0,564,15.61c-1.06,2.47-.08,4.74,1.9,9.2a36.07,36.07,0,0,0,3.62,6.52c2.74,3.91,3.58,3.49,5.73,6.7a35.63,35.63,0,0,1,4,9.14A62.76,62.76,0,0,0,582,54.56C583.19,57.16,583.83,58.54,584.46,58.4Z"/><path class="cls-4" d="M588,76c-1.66-4.36-.15-2.66-2.29-7.91a73.75,73.75,0,0,0-3.16-6.67c-2.35-4.46-2.6-4-3.69-6.5-1.88-4.27-1.1-5.39-3-8.78-.74-1.34-3-5.39-5.27-5.1-2,.26-3,3.65-3.47,5.1-.34,1.11-1.33,4.74.83,13.87,1.33,5.58,2,8.39,4,9.66,3,1.92,5.48-.43,8.26,1.76,2.56,2,1.89,5.12,4.92,6.5.93.42,2.45.79,3,.17S588.22,76.58,588,76Z"/><path class="cls-4" d="M563.23,104.46c.19,1.35,5.92,1.54,7.73,1.6a28.45,28.45,0,0,0,7.55-.72,8.72,8.72,0,0,0,3.87-1.58c.44-.36,2.56-2.12,2.28-4.57a5.17,5.17,0,0,0-2.46-3.51,7.5,7.5,0,0,0-6-.7c-1.61.43-1.26.85-6,4-1.67,1.12-3.28,2.34-4.92,3.51S563.18,104.05,563.23,104.46Z"/><path class="cls-3" d="M569.73,88.83c-.42-2.26,2.59-4.25,2.81-4.39,2.58-1.66,5.48-1.13,8.78-.53,4.07.74,7.11,1.3,8.08,3.69.8,2,.05,4.87-1.58,5.62-2,.94-3.5-2.41-7.73-2.64-3.5-.18-4.94,2-7.72.88C572.06,91.34,570,90.5,569.73,88.83Z"/><rect class="cls-4" x="356.19" y="16.66" width="11.83" height="71.78"/><rect class="cls-4" x="378.72" y="16.66" width="11.83" height="71.78"/><rect class="cls-1" x="326.82" y="1.25" width="88.89" height="21.87"/><rect class="cls-4" x="328.68" y="3.91" width="4.37" height="16.81"/><rect class="cls-4" x="333.73" y="3.91" width="4.37" height="16.81"/><rect class="cls-4" x="338.78" y="3.91" width="4.37" height="16.81"/><rect class="cls-4" x="343.83" y="3.91" width="4.37" height="16.81"/><rect class="cls-4" x="348.88" y="3.91" width="4.37" height="16.81"/><rect class="cls-4" x="353.93" y="3.91" width="4.37" height="16.81"/><rect class="cls-4" x="358.98" y="3.91" width="4.37" height="16.81"/><rect class="cls-4" x="364.03" y="3.91" width="4.37" height="16.81"/><rect class="cls-4" x="369.08" y="3.91" width="4.37" height="16.81"/><rect class="cls-4" x="374.13" y="3.91" width="4.37" height="16.81"/><rect class="cls-4" x="379.18" y="3.91" width="4.37" height="16.81"/><rect class="cls-4" x="384.23" y="3.91" width="4.37" height="16.81"/><rect class="cls-4" x="389.28" y="3.91" width="4.37" height="16.81"/><rect class="cls-4" x="394.33" y="3.91" width="4.37" height="16.81"/><rect class="cls-4" x="399.38" y="3.91" width="4.37" height="16.81"/><rect class="cls-4" x="404.43" y="3.91" width="4.37" height="16.81"/><rect class="cls-4" x="409.48" y="3.91" width="4.37" height="16.81"/><rect class="cls-1" x="332.63" y="3.66" width="1.98" height="9.39"/><rect class="cls-1" x="352.07" y="3.66" width="1.98" height="9.39"/><rect class="cls-1" x="347.26" y="3.66" width="1.98" height="9.39"/><rect class="cls-1" x="337.29" y="3.66" width="1.98" height="9.39"/><rect class="cls-1" x="357.63" y="3.66" width="1.98" height="9.39"/><rect class="cls-1" x="368.02" y="3.66" width="1.98" height="9.39"/><rect class="cls-1" x="387.46" y="3.66" width="1.98" height="9.39"/><rect class="cls-1" x="382.65" y="3.66" width="1.98" height="9.39"/><rect class="cls-1" x="372.51" y="3.66" width="1.98" height="9.39"/><rect class="cls-1" x="393.02" y="3.66" width="1.98" height="9.39"/><rect class="cls-1" x="402.77" y="3.66" width="1.98" height="9.39"/><rect class="cls-1" x="407.82" y="3.66" width="1.98" height="9.39"/><rect class="cls-1" x="356.19" y="93.04" width="35.27" height="13.04"/></svg>